# xmcd
#
# Track frame offsets:
#	150
#	17695
#	32237
#	49759
#	63000
#	77132
#	92922
#	110158
#	143831
#	160506
#	179948
#	188834
#	206111
#
# Disc length: 2949 seconds
#
# Revision: 0
# Processed by: cddbd v1.5PL3 Copyright (c) Steve Scherf et al.
# Submitted via: audiograbber 1.83.01
#
DISCID=b60b830d
DTITLE=The White Stripes - Elephant
DYEAR=1900
DGENRE=
TTITLE0=Seven Nation Army
TTITLE1=Black Math
TTITLE2=There's no home for you here
TTITLE3=I just dont know what to do with myself
TTITLE4=In the cold, cold night
TTITLE5=I want to be the boy...
TTITLE6=You've got her in your pocket
TTITLE7=Ball and biscuit
TTITLE8=The hardest button to button
TTITLE9=Little acorns
TTITLE10=Hypnotise
TTITLE11=The air near my fingers
TTITLE12=Girl, You have no faith in medicine
EXTD=
EXTT0=
EXTT1=
EXTT2=
EXTT3=
EXTT4=
EXTT5=
EXTT6=
EXTT7=
EXTT8=
EXTT9=
EXTT10=
EXTT11=
EXTT12=
PLAYORDER=
